# xmcd
#
# Track frame offsets:
#	182
#	11735
#	24085
#	33547
#	46485
#	73235
#	85322
#	94585
#	107222
#	121560
#	131997
#	147160
#	159472
#	167635
#	181247
#	191260
#	203897
#	214160
#	226872
#	237785
#	252960
#	265322
#	279260
#	295847
#	311110
#	322985
#
# Disc length: 4437 seconds
#
# Revision: 0
# Processed by: cddbd v1.4PL0 Copyright (c) Steve Scherf et al.
# Submitted via: EasyCDDAExtractor 4.5.0.2
#
DISCID=6d11531a
DTITLE=Duane Eddy - Twangin' The Golden Hits/Twang A Country Song
DYEAR=1998
DGENRE=Country
TTITLE0=Rebel Rouser
TTITLE1=Raunchy
TTITLE2=Shangri-La
TTITLE3=Last Date
TTITLE4=Honky Tonk
TTITLE5=Theme From "A Summer Place"
TTITLE6=Tequila
TTITLE7=Stranger On The Shore
TTITLE8=More (Theme from Mondo Cane)
TTITLE9=The River Kwai March
TTITLE10=Swingin' Shepherd Blues
TTITLE11=Rumble
TTITLE12=Sugar Foot Rag
TTITLE13=Weary Blues (From Waiting)
TTITLE14=Fireball Mail
TTITLE15=Please Help Me I'm Falling
TTITLE16=Wildwood Flower
TTITLE17=Precious Memories
TTITLE18=Crazy Arms
TTITLE19=Have You Ever Been Lonely (Have You Ever Been Blue)
TTITLE20=The Window Up Above
TTITLE21=A Satisfied Mind
TTITLE22=Making Believe
TTITLE23=Peace In The Valley
TTITLE24=The Son of Rebel Rouser
TTITLE25=The Story of Three Loves
EXTD=
EXTT0=
EXTT1=
EXTT2=
EXTT3=
EXTT4=
EXTT5=
EXTT6=
EXTT7=
EXTT8=
EXTT9=
EXTT10=
EXTT11=
EXTT12=
EXTT13=
EXTT14=
EXTT15=
EXTT16=
EXTT17=
EXTT18=
EXTT19=
EXTT20=
EXTT21=
EXTT22=
EXTT23=
EXTT24=
EXTT25=
PLAYORDER=
